<svg width="263pt" height="476pt" viewBox="0.00 0.00 263.00 476.00" xmlns="http://www.w3.org/2000/svg" xmlns:xlink="http://www.w3.org/1999/xlink" style="width: 100%; height: 100%;">
<g id="graph0" class="graph" transform="scale(1 1) rotate(0) translate(4 472)">
<polygon fill="white" stroke="transparent" points="-4,4 -4,-472 259,-472 259,4 -4,4"></polygon>
<!-- 0 -->
<g id="node1" class="node">
<title>0</title>
<ellipse fill="none" stroke="black" cx="173" cy="-450" rx="27" ry="18"></ellipse>
<text text-anchor="middle" x="173" y="-446.3" font-family="Times,serif" font-size="14.00">0</text>
</g>
<!-- 1 -->
<g id="node2" class="node">
<title>1</title>
<ellipse fill="none" stroke="black" cx="228" cy="-162" rx="27" ry="18"></ellipse>
<text text-anchor="middle" x="228" y="-158.3" font-family="Times,serif" font-size="14.00">1</text>
</g>
<!-- 0&#45;&gt;1 -->
<g id="edge1" class="edge">
<title>0-&gt;1</title>
<path fill="none" stroke="black" d="M177.91,-431.9C180.78,-421.56 184.35,-408.08 187,-396 203.25,-322.04 217.36,-233.75 223.98,-190.14"></path>
<polygon fill="black" stroke="black" points="227.47,-190.46 225.5,-180.05 220.55,-189.42 227.47,-190.46"></polygon>
</g>
<!-- 7 -->
<g id="node3" class="node">
<title>7</title>
<ellipse fill="none" stroke="black" cx="74" cy="-378" rx="27" ry="18"></ellipse>
<text text-anchor="middle" x="74" y="-374.3" font-family="Times,serif" font-size="14.00">7</text>
</g>
<!-- 0&#45;&gt;7 -->
<g id="edge2" class="edge">
<title>0-&gt;7</title>
<path fill="none" stroke="black" d="M154.84,-436.16C139.63,-425.41 117.71,-409.91 100.53,-397.76"></path>
<polygon fill="black" stroke="black" points="102.23,-394.67 92.04,-391.76 98.19,-400.39 102.23,-394.67"></polygon>
</g>
<!-- 8 -->
<g id="node4" class="node">
<title>8</title>
<ellipse fill="none" stroke="black" cx="173" cy="-90" rx="27" ry="18"></ellipse>
<text text-anchor="middle" x="173" y="-86.3" font-family="Times,serif" font-size="14.00">8</text>
</g>
<!-- 0&#45;&gt;8 -->
<g id="edge3" class="edge">
<title>0-&gt;8</title>
<path fill="none" stroke="black" d="M173,-431.95C173,-405.29 173,-352.11 173,-307 173,-307 173,-307 173,-233 173,-193 173,-146.65 173,-118.08"></path>
<polygon fill="black" stroke="black" points="176.5,-118.05 173,-108.05 169.5,-118.05 176.5,-118.05"></polygon>
</g>
<!-- 1&#45;&gt;8 -->
<g id="edge5" class="edge">
<title>1-&gt;8</title>
<path fill="none" stroke="black" d="M216.07,-145.81C208.79,-136.55 199.34,-124.52 191.15,-114.09"></path>
<polygon fill="black" stroke="black" points="193.84,-111.86 184.91,-106.16 188.34,-116.18 193.84,-111.86"></polygon>
</g>
<!-- 3 -->
<g id="node5" class="node">
<title>3</title>
<ellipse fill="none" stroke="black" cx="82" cy="-18" rx="27" ry="18"></ellipse>
<text text-anchor="middle" x="82" y="-14.3" font-family="Times,serif" font-size="14.00">3</text>
</g>
<!-- 1&#45;&gt;3 -->
<g id="edge4" class="edge">
<title>1-&gt;3</title>
<path fill="none" stroke="black" d="M228.82,-143.92C228.84,-124.37 225.95,-92.42 209,-72 186.3,-44.66 147.11,-31.2 118.25,-24.72"></path>
<polygon fill="black" stroke="black" points="118.64,-21.22 108.14,-22.63 117.22,-28.08 118.64,-21.22"></polygon>
</g>
<!-- 2 -->
<g id="node6" class="node">
<title>2</title>
<ellipse fill="none" stroke="black" cx="74" cy="-306" rx="27" ry="18"></ellipse>
<text text-anchor="middle" x="74" y="-302.3" font-family="Times,serif" font-size="14.00">2</text>
</g>
<!-- 7&#45;&gt;2 -->
<g id="edge13" class="edge">
<title>7-&gt;2</title>
<path fill="none" stroke="black" d="M74,-359.7C74,-351.98 74,-342.71 74,-334.11"></path>
<polygon fill="black" stroke="black" points="77.5,-334.1 74,-324.1 70.5,-334.1 77.5,-334.1"></polygon>
</g>
<!-- 5 -->
<g id="node10" class="node">
<title>5</title>
<ellipse fill="none" stroke="black" cx="27" cy="-90" rx="27" ry="18"></ellipse>
<text text-anchor="middle" x="27" y="-86.3" font-family="Times,serif" font-size="14.00">5</text>
</g>
<!-- 7&#45;&gt;5 -->
<g id="edge14" class="edge">
<title>7-&gt;5</title>
<path fill="none" stroke="black" d="M61.17,-361.74C53.32,-351.64 43.73,-337.76 38,-324 12.95,-263.81 16.25,-244.9 10,-180 8.47,-164.07 7.53,-159.81 10,-144 11.38,-135.18 13.98,-125.82 16.74,-117.46"></path>
<polygon fill="black" stroke="black" points="20.1,-118.45 20.11,-107.86 13.49,-116.13 20.1,-118.45"></polygon>
</g>
<!-- 4 -->
<g id="node7" class="node">
<title>4</title>
<ellipse fill="none" stroke="black" cx="101" cy="-234" rx="27" ry="18"></ellipse>
<text text-anchor="middle" x="101" y="-230.3" font-family="Times,serif" font-size="14.00">4</text>
</g>
<!-- 2&#45;&gt;4 -->
<g id="edge6" class="edge">
<title>2-&gt;4</title>
<path fill="none" stroke="black" d="M80.4,-288.41C83.51,-280.34 87.33,-270.43 90.83,-261.35"></path>
<polygon fill="black" stroke="black" points="94.13,-262.55 94.46,-251.96 87.6,-260.03 94.13,-262.55"></polygon>
</g>
<!-- 9 -->
<g id="node8" class="node">
<title>9</title>
<ellipse fill="none" stroke="black" cx="46" cy="-162" rx="27" ry="18"></ellipse>
<text text-anchor="middle" x="46" y="-158.3" font-family="Times,serif" font-size="14.00">9</text>
</g>
<!-- 2&#45;&gt;9 -->
<g id="edge7" class="edge">
<title>2-&gt;9</title>
<path fill="none" stroke="black" d="M70.62,-287.87C65.83,-263.56 57.01,-218.82 51.33,-190.01"></path>
<polygon fill="black" stroke="black" points="54.76,-189.32 49.39,-180.19 47.89,-190.68 54.76,-189.32"></polygon>
</g>
<!-- 4&#45;&gt;9 -->
<g id="edge9" class="edge">
<title>4-&gt;9</title>
<path fill="none" stroke="black" d="M89.07,-217.81C81.79,-208.55 72.34,-196.52 64.15,-186.09"></path>
<polygon fill="black" stroke="black" points="66.84,-183.86 57.91,-178.16 61.34,-188.18 66.84,-183.86"></polygon>
</g>
<!-- 6 -->
<g id="node9" class="node">
<title>6</title>
<ellipse fill="none" stroke="black" cx="118" cy="-162" rx="27" ry="18"></ellipse>
<text text-anchor="middle" x="118" y="-158.3" font-family="Times,serif" font-size="14.00">6</text>
</g>
<!-- 4&#45;&gt;6 -->
<g id="edge8" class="edge">
<title>4-&gt;6</title>
<path fill="none" stroke="black" d="M105.12,-216.05C107.01,-208.26 109.3,-198.82 111.42,-190.08"></path>
<polygon fill="black" stroke="black" points="114.85,-190.82 113.8,-180.28 108.04,-189.17 114.85,-190.82"></polygon>
</g>
<!-- 9&#45;&gt;3 -->
<g id="edge15" class="edge">
<title>9-&gt;3</title>
<path fill="none" stroke="black" d="M51.79,-144.42C55.3,-134.03 59.72,-120.33 63,-108 68.46,-87.52 73.41,-64.06 76.89,-46.37"></path>
<polygon fill="black" stroke="black" points="80.4,-46.66 78.86,-36.18 73.53,-45.34 80.4,-46.66"></polygon>
</g>
<!-- 6&#45;&gt;8 -->
<g id="edge12" class="edge">
<title>6-&gt;8</title>
<path fill="none" stroke="black" d="M129.93,-145.81C137.21,-136.55 146.66,-124.52 154.85,-114.09"></path>
<polygon fill="black" stroke="black" points="157.66,-116.18 161.09,-106.16 152.16,-111.86 157.66,-116.18"></polygon>
</g>
<!-- 6&#45;&gt;5 -->
<g id="edge11" class="edge">
<title>6-&gt;5</title>
<path fill="none" stroke="black" d="M100.88,-147.83C87.16,-137.27 67.69,-122.3 52.18,-110.37"></path>
<polygon fill="black" stroke="black" points="54.1,-107.43 44.04,-104.11 49.83,-112.98 54.1,-107.43"></polygon>
</g>
<!-- 5&#45;&gt;3 -->
<g id="edge10" class="edge">
<title>5-&gt;3</title>
<path fill="none" stroke="black" d="M38.93,-73.81C46.21,-64.55 55.66,-52.52 63.85,-42.09"></path>
<polygon fill="black" stroke="black" points="66.66,-44.18 70.09,-34.16 61.16,-39.86 66.66,-44.18"></polygon>
</g>
</g>
</svg>